<?xml version="1.0" encoding="UTF-8"?>
<svg xmlns="http://www.w3.org/2000/svg" xmlns:xlink="http://www.w3.org/1999/xlink" width="146.88pt" height="243.05pt" viewBox="0 0 146.88 243.05" version="1.1">
<defs>
<clipPath id="clip1">
  <path d="M 0 0 L 146.878906 0 L 146.878906 243.050781 L 0 243.050781 Z M 0 0 "/>
</clipPath>
</defs>
<g id="surface1">
<g clip-path="url(#clip1)" clip-rule="nonzero">
<path style=" stroke:none;fill-rule:evenodd;fill:white;fill-opacity:1;" d="M 81.019531 220.058594 C 85.753906 212.746094 91.863281 206.8125 91.953125 194.867188 C 87.941406 194.867188 83.929688 194.867188 79.921875 194.867188 C 80.640625 202.914063 78.476563 213.835938 81.019531 220.058594 Z M 66.78125 220.058594 C 66.78125 211.671875 66.78125 203.28125 66.78125 194.867188 C 62.769531 194.867188 58.75 194.867188 54.738281 194.867188 C 55.632813 206.398438 60.898438 213.539063 66.78125 220.058594 Z M 79.921875 182.832031 C 84.664063 182.832031 89.410156 182.832031 94.15625 182.832031 C 94.796875 177.070313 93.339844 173.425781 93.054688 168.597656 C 84.148438 168.816406 81.101563 174.890625 79.921875 182.832031 Z M 52.546875 182.832031 C 57.292969 182.832031 62.039063 182.832031 66.78125 182.832031 C 65.945313 174.546875 62.328125 169.046875 53.648438 168.597656 C 53.363281 173.425781 51.894531 177.070313 52.546875 182.832031 Z M 128.082031 146.707031 C 125.15625 157.640625 116.640625 163.003906 105.089844 165.320313 C 105.753906 171.210938 107.335938 176.210938 107.289063 182.832031 C 116.414063 182.832031 125.535156 182.832031 134.660156 182.832031 C 134.660156 170.777344 134.660156 158.742188 134.660156 146.707031 C 132.457031 146.707031 130.28125 146.707031 128.082031 146.707031 Z M 12.042969 182.832031 C 21.167969 182.832031 30.289063 182.832031 39.414063 182.832031 C 40.003906 176.851563 41.011719 171.292969 41.601563 165.320313 C 29.082031 163.601563 23.0625 155.382813 17.515625 146.707031 C 15.695313 146.707031 13.867188 146.707031 12.042969 146.707031 C 12.042969 158.742188 12.042969 170.777344 12.042969 182.832031 Z M 59.113281 156.566406 C 65.257813 158.445313 68.0625 163.683594 74.445313 165.320313 C 78.210938 161.425781 84.183594 159.738281 87.578125 155.464844 C 80.4375 147.28125 78.945313 133.445313 72.253906 124.808594 C 69.855469 137.367188 64.628906 147.097656 59.113281 156.566406 Z M 114.945313 118.242188 C 124.21875 120.285156 123.105469 132.714844 132.457031 134.664063 C 136.8125 109.445313 134.683594 71.921875 133.558594 44.890625 C 119.09375 61.074219 117.996094 90.632813 114.945313 118.242188 Z M 12.042969 48.167969 C 12.042969 69.300781 12.042969 94.578125 12.042969 114.953125 C 12.042969 121.371094 9.375 130.902344 15.328125 134.664063 C 21.132813 132.726563 24.707031 121.253906 31.75 117.140625 C 28.582031 89.65625 28.523438 59.054688 12.042969 44.890625 C 12.042969 45.976563 12.042969 47.078125 12.042969 48.167969 Z M 100.710938 128.082031 C 104.859375 80.414063 111.027344 34.769531 145.59375 17.519531 C 148.160156 74.449219 145.972656 136.117188 146.691406 194.867188 C 133.558594 194.867188 120.425781 194.867188 107.289063 194.867188 C 101.363281 215.945313 89.125 230.730469 74.445313 243.050781 C 57.847656 232.265625 45.585938 217.171875 40.507813 194.867188 C 27.007813 194.867188 13.503906 194.867188 0 194.867188 C 0 135.75 0 76.636719 0 17.519531 C 35.8125 33.53125 41.808594 79.347656 45.980469 126.996094 C 27.257813 124.542969 25.589844 155.050781 43.792969 152.1875 C 52.960938 150.730469 63.785156 123.1875 65.6875 98.527344 C 68.523438 61.761719 57.109375 16.90625 73.351563 -0.00390625 C 89.9375 15.789063 78.476563 57.375 81.019531 95.25 C 82.007813 109.988281 90.625 149.46875 101.8125 152.1875 C 119.726563 156.507813 121.824219 124.160156 100.710938 128.082031 "/>
</g>
</g>
</svg>
